<?xml version="1.0" encoding="UTF-8"?>
<svg id="Layer_2" data-name="Layer 2" xmlns="http://www.w3.org/2000/svg" viewBox="0 0 140.11 64.7">
  <defs>
    <style>
      .cls-1 {
        fill: #bed8ff;
      }

      .cls-1, .cls-2, .cls-3, .cls-4, .cls-5, .cls-6, .cls-7, .cls-8, .cls-9, .cls-10 {
        stroke: #000;
        stroke-width: .86px;
      }

      .cls-1, .cls-2, .cls-4, .cls-6, .cls-7, .cls-8, .cls-9, .cls-10 {
        stroke-linecap: round;
        stroke-linejoin: round;
      }

      .cls-2, .cls-3 {
        fill: #5ac9ec;
      }

      .cls-11, .cls-12, .cls-13, .cls-14 {
        stroke-width: 0px;
      }

      .cls-3, .cls-5 {
        stroke-miterlimit: 10;
      }

      .cls-4 {
        fill: #599edc;
      }

      .cls-5, .cls-10 {
        fill: #4396b1;
      }

      .cls-6 {
        fill: #99def3;
      }

      .cls-12 {
        fill: #ff7ba9;
      }

      .cls-7 {
        fill: #acf;
      }

      .cls-8 {
        fill: #bae8f6;
      }

      .cls-9 {
        fill: #95c0ff;
      }

      .cls-13 {
        fill: #5394ba;
      }

      .cls-14 {
        fill: #efefef;
      }
    </style>
  </defs>
  <g id="Layer_1-2" data-name="Layer 1">
    <g>
      <g>
        <path class="cls-12" d="m61.79,45.18c-.1,0-.22-.07-.25-.21l-.42-2.16c-.02-.1.02-.17.05-.2.03-.03.08-.09.18-.1,0,0,9.84-.77,9.85-.77.22,0,.26.17.27.22.01.08,0,.22-.18.28l-9.43,2.93h-.08Z"/>
        <path class="cls-11" d="m71.23,42.16h0,0m-1.55.12l-7.75,2.41-.34-1.78,8.09-.64m1.55-.98s-.04,0-.06,0l-9.84.77c-.41.03-.7.41-.62.81l.42,2.16c.06.33.35.56.67.56.07,0,.14-.01.2-.03l9.43-2.94c.76-.24.57-1.34-.19-1.34h0Z"/>
      </g>
      <g>
        <path class="cls-13" d="m13.04,38.91c-6.65-.08-12.3-5.49-12.59-12.04-.13-2.96.8-5.69,2.68-7.9,2.28-2.67,5.94-4.42,9.32-4.47h.25c1.86,0,3.01.31,5.31.93.94.25,2.03.55,3.38.88,1.23.3,2.52.46,3.84.46,3.27,0,6.37-.95,8.5-2.6,1.85-1.43,3.04-3.66,3.18-5.95.08-1.34-.16-3.28-1.77-4.92-.96-.98-2.35-1.5-4-1.5-1.5,0-3.11.43-4.65,1.24-.08.04-.16.06-.24.06-.22,0-.43-.15-.53-.38-.15-.35-.02-.78.29-.95,1.68-.88,3.45-1.35,5.11-1.35,1.94,0,3.65.65,4.8,1.82,1.55,1.58,2.32,3.73,2.18,6.06-.17,2.72-1.55,5.34-3.71,7.01-2.32,1.8-5.67,2.83-9.2,2.83-1.39,0-2.75-.16-4.04-.48-1.39-.35-2.51-.65-3.4-.89-2.21-.6-3.32-.9-5.04-.9h-.25c-3.09.05-6.43,1.65-8.5,4.07-1.66,1.95-2.45,4.25-2.33,6.85.26,5.83,5.39,10.65,11.43,10.72.33,0,.59.32.59.7,0,.38-.27.69-.59.69h-.01Z"/>
        <path class="cls-11" d="m31.11.86c1.83,0,3.42.6,4.5,1.69,1.46,1.49,2.19,3.53,2.06,5.74-.16,2.6-1.48,5.1-3.54,6.69-2.24,1.74-5.5,2.73-8.94,2.73-1.36,0-2.68-.16-3.93-.47-1.38-.34-2.49-.64-3.39-.89-2.25-.61-3.37-.92-5.16-.92h-.25c-3.21.05-6.67,1.71-8.82,4.22-1.74,2.03-2.56,4.44-2.44,7.15.27,6.06,5.59,11.05,11.85,11.13.07,0,.16.11.16.27,0,.16-.1.26-.16.26h0c-6.43-.08-11.89-5.3-12.17-11.63-.13-2.85.76-5.48,2.58-7.6,2.2-2.58,5.74-4.28,9-4.32h.25c1.8,0,2.94.31,5.2.92.89.24,1.99.54,3.39.89,1.26.31,2.59.47,3.94.47,3.36,0,6.56-.98,8.77-2.69,1.95-1.51,3.2-3.85,3.35-6.26.09-1.42-.17-3.49-1.9-5.25-1.03-1.05-2.56-1.63-4.31-1.63-1.57,0-3.24.45-4.89,1.31-.04,0-.1-.04-.13-.12-.07-.16,0-.34.09-.39,1.62-.85,3.31-1.3,4.91-1.3m0-.86c-1.7,0-3.53.46-5.31,1.4-.51.27-.73.94-.48,1.5.18.4.54.64.92.64.15,0,.3-.04.44-.11,1.52-.8,3.06-1.19,4.45-1.19,1.49,0,2.8.46,3.7,1.37,1.5,1.53,1.73,3.34,1.65,4.59-.13,2.17-1.26,4.28-3.01,5.64-2.1,1.62-5.14,2.51-8.24,2.51-1.26,0-2.52-.15-3.74-.45-1.38-.34-2.48-.64-3.37-.88-2.3-.62-3.51-.95-5.42-.95-.09,0-.17,0-.26,0-3.5.05-7.29,1.87-9.64,4.63C.84,20.98-.12,23.81.01,26.89c.3,6.78,6.14,12.36,13.02,12.45,0,0,0,0,.01,0,.56,0,1.02-.49,1.02-1.11,0-.62-.45-1.13-1.01-1.14-5.82-.07-10.76-4.7-11-10.31-.11-2.49.64-4.69,2.23-6.55,2-2.33,5.21-3.87,8.18-3.92.08,0,.16,0,.23,0,1.67,0,2.73.29,4.93.89.9.24,2.01.54,3.41.89,1.34.33,2.74.49,4.14.49,3.54,0,7.03-1.03,9.47-2.91,2.25-1.74,3.7-4.48,3.88-7.32.15-2.46-.67-4.73-2.3-6.39-1.27-1.29-3.09-1.95-5.11-1.95h0Z"/>
      </g>
      <g>
        <path class="cls-12" d="m52.96,56.89c-.19-.03-.54-.56-.5-1.42.04-.75.35-1.15.51-1.15l.49.11.05-.5c0-.08.02-.1.02-.1l.66.09-.09-.64c0-.07.08-.13.29-.16l.44-.05-.07-.44c-.02-.15.33-.53,1.05-.69.2-.04.39-.07.58-.07.55,0,.87.18.91.31,0,.01.02.05-.02.12-.1.19-.44.44-.96.57l-.93.23.79.54c.45.3.54.57.53.61,0,.02-.13.11-.47.11h0c-.24,0-.51-.05-.8-.14l-1.2-.39.71,1.04c.42.61.44,1.06.38,1.14h0c-.26,0-.68-.21-1.1-.67l-.72-.78-.03,1.17c-.04.75-.35,1.15-.51,1.15h-.02Z"/>
        <path class="cls-11" d="m56.41,52.3c.08,0,.15,0,.21.01-.1.05-.23.1-.39.14l-1.01.25v-.02c.09-.09.32-.24.7-.33.16-.04.33-.06.49-.06m-1.24,1.16l.61.41c-.06-.02-.12-.03-.19-.05l-.93-.3.51-.06m-1.25.83l.14.02.56.82s0,0,0,0c-.02-.02-.04-.04-.06-.07l-.65-.69v-.08m-.84.5v.87s-.01.06-.01.06c0,.19-.04.35-.08.47-.05-.17-.09-.41-.08-.7.02-.33.1-.57.17-.69m3.34-3.36c-.22,0-.44.02-.67.08-.87.2-1.46.71-1.39,1.18-.35.04-.6.19-.66.42-.02.09-.02.19.01.29-.04,0-.07,0-.11,0-.11,0-.22.03-.3.08-.13.09-.19.24-.2.43,0,0-.02,0-.03,0-.03,0-.06,0-.09,0-.48,0-.89.67-.94,1.56-.05.95.34,1.78.85,1.87.03,0,.06,0,.09,0,.48,0,.89-.67.94-1.56,0-.04,0-.08,0-.11.47.5,1,.81,1.38.81.11,0,.22-.03.3-.09.36-.25.23-1-.27-1.73.33.11.65.16.93.16.47,0,.81-.15.89-.43.09-.32-.2-.74-.7-1.08.88-.22,1.46-.77,1.29-1.25-.13-.37-.67-.59-1.32-.59h0Z"/>
      </g>
      <path class="cls-3" d="m55.77,50.72c-2-4.57-2.88-12.23-9.93-10.01-6.11,1.95-5.47,9.09-.15,11.19.52.29,4.93,2.67,5.23,3.05,2.69,2.59,7.05-1.2,4.85-4.22Z"/>
      <g>
        <path class="cls-12" d="m7.27,53.04c-.09-.01-.4-.38-.47-1.18l-.11-1.22.47-.39s.02,0,.03,0c.06,0,.13.06.22.21l.22.38.38-.23s.02,0,.03,0c.3,0,.69.25,1.02.7.48.67.51,1.33.36,1.47-.02,0-.03,0-.05,0-.29,0-.65-.21-.97-.64l-.58-.77-.19.94c-.11.53-.31.72-.36.73Zm-2.15-.58c-.09-.06-.16-.55.17-1.29l.44-.98-1,.4c-.35.13-.61.18-.84.18-.31,0-.5-.09-.52-.18-.04-.19.31-.71,1.12-1.01.26-.09.52-.14.75-.14.31,0,.5.09.52.18l.11.48.46-.14.1-.02s.02.03.04.09l.17.65-.64.99c-.35.55-.73.79-.89.79Z"/>
        <path class="cls-11" d="m5.24,49.88s.08,0,.11,0l-.8.32-.06.02c-.16.06-.32.1-.47.11.14-.12.34-.25.61-.35.21-.08.42-.12.6-.12h0m.9.59l.04.14-.53.83s0,0,0,0c.01-.03.02-.06.04-.08l.39-.86.08-.02m1,.38l.26.45-.15.72c0-.06-.02-.12-.02-.19l-.09-.98m.99.19c.12.05.35.21.57.52.17.23.26.45.31.62-.09-.08-.18-.17-.28-.3l-.63-.83h.02m-2.89-2.04c-.27,0-.58.06-.9.17-.89.32-1.51,1-1.39,1.51.08.33.45.51.94.51.27,0,.58-.06.9-.17.04-.01.07-.03.11-.04-.37.81-.39,1.6-.02,1.83.07.04.15.07.24.07.37,0,.86-.38,1.25-.99.08.9.46,1.57.9,1.57.02,0,.04,0,.06,0,.33-.05.6-.47.72-1.07.4.53.89.84,1.27.84.15,0,.28-.04.38-.14.39-.35.25-1.27-.3-2.04-.4-.57-.92-.9-1.32-.9-.11,0-.21.03-.3.08-.16-.28-.37-.45-.58-.45-.02,0-.04,0-.06,0-.09.01-.18.05-.26.12-.04-.16-.12-.28-.23-.35-.07-.04-.15-.06-.24-.06-.07,0-.15.02-.24.05,0,0,0-.02,0-.03-.08-.33-.45-.51-.94-.51h0Z"/>
      </g>
      <path class="cls-5" d="m11.37,36.74c-1.77,1.23-2.41,2.97-2.61,3.59-.47.98-.99,1.98-1.53,3.02-.7,1.35-1.41,2.68-1.6,2.85-2.73,3.06,1.61,7.69,4.84,5.16,2.95-1.42,7.13-2.45,9.44-4.68"/>
      <g>
        <path class="cls-12" d="m39.24,61.2c-.09-.11-.19-.64.05-1.28.21-.58.54-.83.64-.84l.3.17-.33,1.03c-.23.62-.52.88-.64.92Zm2.38-.17c-.14-.1-.39-.35-.62-.82l-.43-.9.16-.48.47.22.33,1.05c.14.45.13.77.1.93Zm1.75-1.21c-.24-.02-.56-.13-.92-.39l-.94-.66v-.41h.02s.08,0,.11,0l.61.11.03-.17.82,1.03c.17.21.24.38.27.48Zm.23-1.46l-1.32-.07.06-.42s.3-.21.83-.21c.07,0,.13,0,.2,0,.75.06,1.16.4,1.2.52-.03.02-.3.19-.83.19h-.14Z"/>
        <path class="cls-11" d="m43.17,57.05c-.77,0-1.36.3-1.42.72-.09-.02-.17-.02-.24-.02-.23,0-.41.07-.51.23-.05.08-.07.17-.08.28-.1-.04-.19-.07-.28-.07-.05,0-.09,0-.13.02-.15.05-.25.17-.32.35,0,0-.02-.01-.02-.01-.08-.04-.16-.06-.24-.06-.43,0-.93.49-1.2,1.24-.33.89-.21,1.8.26,2.04.08.04.16.06.24.06.43,0,.93-.49,1.2-1.24.01-.04.02-.07.04-.11.34.72.85,1.21,1.25,1.21.05,0,.09,0,.14-.02.42-.13.52-.89.25-1.74.47.33.95.51,1.31.51.23,0,.41-.07.51-.23.18-.28.03-.77-.35-1.24.06,0,.12,0,.17,0,.83,0,1.45-.34,1.43-.82-.02-.52-.8-1.01-1.75-1.09-.08,0-.17-.01-.25-.01h0Z"/>
      </g>
      <path class="cls-3" d="m31.34,49.77c.23,2.69,2.19,4.22,2.52,4.46.7.7,1.4,1.45,2.13,2.23.95,1.01,1.87,2.01,1.96,2.24,1.79,3.27,7.09.94,5.89-2.59.33-3.28-.12-5.83-.54-7.45-.69-2.65-1.5-3.47-1.97-3.86"/>
      <g>
        <path class="cls-11" d="m60.85,29.65l-.38-.12c-.8-.25-1.21-1.14-.88-1.9.75-1.73,1.76-2.89,2.53-2.77.03,0,.05,0,.08.02.77.22,1.06,1.78.79,3.72-.12.84-.96,1.38-1.79,1.15l-.35-.1Z"/>
        <path class="cls-11" d="m62.1,24.94h0s.05,0,.07.01c.43.12.72.73.81,1.69.05.55.03,1.16-.05,1.82-.11.86-.96,1.43-1.79,1.19l-.25-.07-.3-.1c-.81-.26-1.21-1.16-.87-1.94.26-.58.55-1.1.86-1.53.55-.75,1.11-1.15,1.53-1.08m.02-.16c-.81-.13-1.87,1.07-2.65,2.89-.33.77.08,1.65.88,1.9l.47.15.43.12c.82.23,1.66-.31,1.79-1.16.3-2.03,0-3.66-.84-3.89-.03,0-.06-.01-.09-.02h0Z"/>
      </g>
      <path class="cls-6" d="m56.48,36.56c0-8.53-15.38-13.28-28.68-13.28-11.34,0-17.52,3.45-19.1,9.75l-2.98,2.39c-1.04.83-.72,2.4.59,2.82l2.28.73c.04.17.09.34.14.51l-.74,1.43c-.59,1.15.38,2.46,1.75,2.36l.89-.06c.32.43.68.86,1.06,1.26l-.62,1.62c-.46,1.2.66,2.41,2.01,2.18l2.78-.48c.33.2.67.39,1.01.58v2.18c0,1.27,1.49,2.07,2.68,1.43l2.66-1.42c.05.02.11.03.16.05l.99,3.53c.35,1.23,2.01,1.66,2.99.76l2.51-2.29,1.96,2.12c.89.97,2.59.68,3.05-.52l.88-2.29c.38-.02.75-.05,1.12-.09l1.06,1.15c.89.97,2.59.68,3.05-.52l.52-1.37c.61-.14,1.21-.29,1.79-.46l.21.23c.89.97,2.59.68,3.05-.52l.39-1.02c.47-.2.92-.42,1.36-.64l1.93,1.51c1.05.82,2.67.28,2.92-.97l.92-4.75c2.16-2.31,3.4-5.02,3.4-7.91Z"/>
      <path class="cls-6" d="m72.87,43.79c.18-.1.07-.36-.13-.32-6.2,1.26-10.24-1.28-10.64-2.99-.42-1.81,3.51-2.27,10.17-3.79.44-.1.87-.19,1.29-.28,1.17-.23,1.53-1.69.59-2.38-1.63-1.2-3.35-2.14-4.19-2.6-3.79-2.06-9.21-5.01-14.86-2.76-.41.16-6.04,2.51-7.26,8.11-.07.33-1.19,5.83,2.22,8.65,1.71,1.41,4.21,1.34,9.15,1.13,4.61-.19,8.9-.41,13.64-2.77,0,0,0,0,.01,0h0Z"/>
      <g>
        <path class="cls-12" d="m73.4,35.99c-.48,0-.9-.31-1.04-.77-.04-.13-.03-.18-.03-.18.05-.06.35-.14.56-.19.15-.04.3-.08.46-.13.16-.05.31-.11.45-.16.21-.08.43-.16.55-.16h0s.05.03.09.16c.09.28.06.57-.07.83-.13.26-.36.45-.64.54-.11.03-.22.05-.33.05Z"/>
        <path class="cls-11" d="m74.36,34.84h0,0m-.3.09c0,.09-.03.19-.07.27-.08.16-.22.27-.39.32-.06.02-.13.03-.2.03-.2,0-.39-.09-.52-.26.04,0,.07-.02.11-.03.15-.04.32-.08.48-.13.17-.05.32-.11.47-.17.03-.01.07-.03.11-.04m.29-.95c-.29,0-.67.2-1.13.34-.8.25-1.52.23-1.27,1.04.2.65.8,1.07,1.45,1.07.15,0,.3-.02.45-.07.8-.25,1.25-1.1,1-1.91-.11-.35-.28-.47-.51-.47h0Z"/>
      </g>
      <g>
        <path class="cls-11" d="m56.06,34.99c-.5,0-.93-.39-.97-.89l-.02-.2c-.03-.28-.07-.66,0-.75.01-.02.07-.04.19-.06.04,0,.07,0,.11,0,.73,0,1.63.45,1.66.83.02.26-.06.52-.22.72s-.4.32-.66.35h-.09Z"/>
        <path class="cls-11" d="m55.47,33.53c.49.03,1.06.31,1.14.43.01.15-.03.29-.13.4-.09.11-.23.18-.37.2h-.05c-.28,0-.52-.22-.55-.5l-.02-.2c-.01-.1-.02-.22-.03-.33m-.09-.86c-.05,0-.1,0-.15,0-.78.07-.64.69-.57,1.47.07.73.68,1.28,1.4,1.28.04,0,.09,0,.13,0,.78-.07,1.35-.76,1.28-1.53-.07-.73-1.3-1.22-2.09-1.22h0Z"/>
      </g>
      <path class="cls-11" d="m50.92,32.96c-.61.83-1.82.91-2.54.16-1.41-1.47-2.02-3.04-1.4-3.93.25-.36.7-.58,1.3-.63.81-.07,1.83.15,2.88.61.96.42,1.3,1.62.69,2.48l-.45.64-.49.67Z"/>
      <path class="cls-10" d="m61.34,27.89c4.56.45,8.3,3.34,7.8,4.2-.27.45-1.71.34-3.9.16-4.17-.35-11.08-1.56-10.99-2.84.07-.93,3.82-1.85,7.09-1.52Z"/>
      <g>
        <path class="cls-14" d="m55.43,34.22c-.13,0-.24-.11-.24-.24s.11-.24.24-.24.24.11.24.24-.11.24-.24.24Z"/>
        <path class="cls-11" d="m55.43,33.31c-.37,0-.67.3-.67.67s.3.67.67.67.67-.3.67-.67-.3-.67-.67-.67h0Z"/>
      </g>
      <ellipse class="cls-9" cx="75.75" cy="59.07" rx="3.46" ry="5.81" transform="translate(-20.04 51.97) rotate(-33.71)"/>
      <path class="cls-1" d="m92.21,54.89l3.44-2.29-6.29-9.43-3.44,2.29c-2.73-1.53-6.46-.63-8,2.49l-2.68,5.43c-1.97,3.99,1.12,8.61,5.55,8.33l6.05-.39c3.47-.23,5.74-3.32,5.38-6.43Z"/>
      <ellipse class="cls-7" cx="92.88" cy="47.63" rx="2.01" ry="5.81" transform="translate(-10.82 59.56) rotate(-33.71)"/>
      <path class="cls-2" d="m94.6,46.72c3.61.31,8.16-5.11,8.49-10.72.23-3.82-1.46-8.31-5.28-10.65-3.91-2.39-9.79-2.39-11.83.43-.85,1.18-1.29,3.19-.31,4.61.96,1.4,3.2,2.06,4.6,1.14,1-.66,1.6-2.16,1.13-2.95-.5-.86-2.06-.62-2.08-.93-.02-.33,1.69-1.1,3.5-.86,3.32.45,5.05,4.04,5.17,4.29,1.02,2.2.73,4.23.61,5-.09.56-.73,4.24-3.67,6.04-2,1.22-3.71.75-3.94,1.58-.25.96,1.65,2.86,3.62,3.02Z"/>
      <path class="cls-8" d="m97.83,42.61c-2.33-3.26,4.66-9.53,14.11-11.94,6.43-1.64,14.95-1.73,20.86.97,6.04,2.76,8.97,8.27,5.18,11.23-1.59,1.24-4.82,2.39-7.73,2.01-2.88-.38-5.13-2.22-4.25-3.88.63-1.19,2.89-2.3,4.49-2.16,1.72.15,2.09,1.69,2.63,1.6.58-.1,1.04-1.99-.28-3.59-2.42-2.94-9.43-3.22-9.93-3.23-4.27-.14-7.6.89-8.86,1.3-.92.29-6.9,2.26-8.51,5.68-1.1,2.33.58,3.75-.74,4.27-1.51.59-5.71-.48-6.99-2.26Z"/>
      <path class="cls-4" d="m123.11,46.85c-6.16-14.96-24.17-8.83-31.6-3.92-2.38,1.84,3.19,9.87,5.72,7.58.88-1.73,2.66-3.11,5.25-3.18,1.74-.25,3.14.8,4.15,2.28-5.73-1.81-2.33,7.57,2.04,3,3.22-4.47-2.13-8.03-5.46-8.23,1.5-.65,3.18-1.08,5.01-1.06,3.59-.51,6.55,1.45,8.71,4.44-.45-.52-3.44-1.27-4.63-.09-8.02,11.58,14,10.17,10.79-.81Z"/>
    </g>
  </g>
</svg>