<?xml version="1.0" encoding="UTF-8"?>
<svg id="Layer_2" data-name="Layer 2" xmlns="http://www.w3.org/2000/svg" viewBox="0 0 615.49 615.49">
  <defs>
    <style>
      .cls-1, .cls-2 {
        stroke-width: 0px;
      }

      .cls-2 {
        fill: #fff;
      }
    </style>
  </defs>
  <g id="Layer_1-2" data-name="Layer 1">
    <g>
      <circle class="cls-1" cx="307.74" cy="307.74" r="307.74"/>
      <g>
        <path class="cls-2" d="m280.71,308.77c0,14.86,12.09,26.96,26.96,26.96s26.96-12.09,26.96-26.96-12.09-26.96-26.96-26.96c-14.87,0-26.96,12.09-26.96,26.96Z"/>
        <path class="cls-2" d="m239.46,424.24h136.4l4.77-42.52c3.44-30.4,15.36-59.26,34.12-83.32l-99.26-184.83v154.14c19,3.49,34.11,20.56,34.11,41.05,0,23-18.83,41.71-41.83,41.71s-41.67-18.71-41.67-41.71c0-20.48,14.38-37.55,34.38-41.05V113.58l-99.56,184.7c18.49,23.24,29.98,51.33,33.41,80.93l5.12,45.03Z"/>
        <path class="cls-2" d="m232.89,439.24h-42.4v63h234v-63h-191.6Zm109.12,39h-68.67c-4.08,0-7.38-2.92-7.38-7s3.3-7,7.38-7h68.67c4.07,0,7.38,2.93,7.38,7,0,4.08-3.3,7-7.38,7Z"/>
      </g>
    </g>
  </g>
</svg>