<?xml version="1.0" encoding="UTF-8"?>
<svg id="Layer_2" data-name="Layer 2" xmlns="http://www.w3.org/2000/svg" viewBox="0 0 5414.03 2020.27">
  <defs>
    <style>
      .cls-1 {
        fill: none;
        stroke: #1a1a1a;
        stroke-linecap: round;
        stroke-linejoin: round;
        stroke-width: 13px;
      }
    </style>
  </defs>
  <g id="Ebene_2" data-name="Ebene 2">
    <path class="cls-1" d="m6.5,1902.64h753.57s-150-63.21-167.86-137.58c-17.86-74.37-57.14-271.45-57.14-271.45,0,0,71.43,141.3,178.57,193.36,107.14,52.06,471.43,148.74,517.86,156.18,46.43,7.44,39.33,3.99,39.33,3.99,0,0-563.18-146.23-626.52-202.15-63.34-55.91-114.29-146.23-136.32-213.62-22.03-67.38-33.05-131.9-41.31-147.67-8.26-15.77-38.56-73.62-31.67-107.06,6.88-33.44,16.52-52.08,46.82-83.62,30.29-31.54,59.21-78.3,56.46-112.27-2.75-33.97-17.9-115.69,2.75-145.79,20.65-30.11,53.7-55.91,125.3-84.59,71.6-28.67,112.91-97.49,140.45-143.37,27.54-45.88,61.96-107.53,74.36-116.13,12.39-8.6,22.03-30.11,72.98-28.67,50.95,1.43,92.26,2.87,148.71,14.34,56.46,11.47,118.42,32.97,118.42,32.97l-196.91-385.66s13.98-85.06,108.01-73.35c-2.04-2.13-74.61-13.83-111.41,52.14-8.18-11.71-18.4-35.12-18.4-35.12,0,0,27.6-75.56,105.27-58.53,8.18,15.96,19.42,27.67,19.42,27.67,0,0,39.86-24.48,52.13-8.51,12.26,15.96,232.75,342.66,246.69,380.97,13.94,38.31,20.07,43.63,11.89,55.34-3.07,6.39-36.79,5.32-57.24-55.34-20.44-60.66,25.55,12.77-19.42-58.53s-181.93-285.19-188.06-289.45c-6.13-4.26-24.53,8.51-17.38,20.22,7.15,11.71,335.24,541.66,335.24,541.66,0,0-46.27-10.64-65.04,5.32-14.68-5.32-84.18-26.6-100.53-43.63-16.35-17.03-78.7-65.98-84.83-68.11,18.4,10.64,87.62,63.85,185.37,121.31,26.2-5.32,65.04-8.51,73.22-1.06,7.15,9.58,131.85,225.6,131.85,225.6,0,0-60.3-70.23-97.1-120.25-36.79-50.02-99.14-94.71-99.14-94.71,0,0,53.77,37.08,57.37,51.12,10.79-2.81,32.37-2.81,26.97-2.81s-31.47,1.87-8.09,29.02c23.38,27.15,117.78,144.16,140.25,162.88,22.48,18.72,50.35,28.08,97.1,33.7,46.75,5.62,201.39,7.49,245.45,18.72,44.05,11.23,88.11,21.53,123.17,87.06,35.06,65.53,42.26,144.16,33.27,167.56-8.99,23.4-53.94,90.8-78.22,106.71-2.7-21.53.9-153.52-66.53-189.09-50.65-26.72-69.23-3.74-80.92,21.53l-11.69,25.27s84.51,23.4,129.47,234.96c8.09-20.59,19.78-73.01,20.68-82.38-1.8,12.17-22.48,121.69-47.65,136.67-25.17,14.98-41.36.94-41.36.94,0,0,48.55-78.63,19.78-154.45-28.77-75.82-98-155.39-115.98-177.86-17.98-22.47-98.9-105.78-99.8-110.46-.9-4.68,48.55-42.12,37.76-35.57-10.79,6.55-31.47,44-49.45,24.34-17.98-19.66-78.22-76.76-70.13-71.14,0,0,286.59,294.92,301.08,400.2,4.24,1.16-107.78-73.51-127.56-69.77-19.78,3.74-114.18,99.23-117.78,136.67-3.6,37.44,69.23,103.91,85.41,117.01s86.31,2.81,128.57-46.8c-1.8,3.74-103.39,69.27-160.93,56.17-57.54-13.11-109.69-52.42-129.47-68.33-19.78-15.91-157.34-106.71-188.8-139.48-31.47-32.76-244.76-199.39-292.3-240.57-47.55-41.19-198.59-165.69-242.64-222.79s-51.25-72.08-44.05-57.1c7.19,14.98,679.69,642.16,897.27,741.38,22.48,30.89,110.59,158.2,110.59,158.2,0,0,38.66-66.46,146.55-73.95-9.89-23.4-84.51-153.52-81.82-149.77,2.7,3.74,84.51,161.01,88.11,171.3,3.6,10.3,36.14,176.6,36.14,176.6,0,0-41.51,28.59-36.11,25.78,5.39-2.81,31.49-29.62,34-14.73,2.88,17.06,14.09,39.49,10.81,41.74-5.01,3.44-34.81-31.99-44.82-27.02-5.36,2.66-121.49-117.38-121.49-117.38,0,0,49.53-61.6,111.57-67.21-18.88,5.62-99.24,32.01-116.74,62.8-10.86-11.94-21-21.14-21-21.14,0,0-66.39,84.83-98.98,81.69s-105.01-49.64-107.43-61.58c-.56-2.75,67.6-154.58,85.7-156.47,18.11-1.89,16.9,3.77,16.9,3.77,0,0,91.13,116.25,88.12,127.56-3.02,11.31-77.25,99.91-129.76,96.14-52.51-3.77-132.17-37.07-160.54-50.9-28.37-13.82-409.37-206.33-447.78-231.66-38.41-25.33-148.52-89.31-216.37-142.63-67.86-53.32-294.47-239.95-282.95-249.28,11.52-9.33,212.53,199.96,303.44,273.27,90.9,73.32,508.29,283.94,504.44,294.6-3.84,10.66-55.77,94.65-49.65,121.31,6.12,26.66,104.71,46.66,111.11,45.32,6.4-1.33,83.22-29.33,87.06-91.98-2.56,9.33-72.98,98.64-120.35,107.98-47.37,9.33-171.64-6.11-215.09-12-16.64,17.33-1.28,20-38.41,31.99-37.13,12-299.59,46.66-467.32,21.33,27.7,1.81,400.58-.59,485.75-12.57,98.98,0,759.84-8.28,759.84-8.28,21.34-.84,22.57-.93,33.8-.97,227.31-.74,155.32,94.94,857.51,117.33,241.63,7.71,685.43-114.62,685.43-323.24,0-63.88-52.98-97.88-117.69-97.88-107.92,0-238.39,102.67-238.39,203.44,0,129.42,263.87,231.45,399.27,231.45,281.47,0,517.28-256.78,668.7-256.78,170.47,0,297.21,123.57,581.28,123.57,255.42,0,465.59-176.32,508.96-239.6"/>
  </g>
</svg>