<?xml version="1.0" encoding="UTF-8"?>
<svg id="Layer_2" data-name="Layer 2" xmlns="http://www.w3.org/2000/svg" viewBox="0 0 110.3 110.3">
  <defs>
    <style>
      .cls-1, .cls-2 {
        stroke-width: 0px;
      }

      .cls-2 {
        fill: #fff;
      }
    </style>
  </defs>
  <g id="Layer_1-2" data-name="Layer 1">
    <g>
      <circle class="cls-1" cx="55.15" cy="55.15" r="55.15"/>
      <g>
        <path class="cls-2" d="m50.3,55.33c0,2.66,2.17,4.83,4.83,4.83s4.83-2.17,4.83-4.83-2.17-4.83-4.83-4.83c-2.66,0-4.83,2.17-4.83,4.83Z"/>
        <path class="cls-2" d="m42.91,76.03h24.44l.85-7.62c.62-5.45,2.75-10.62,6.11-14.93l-17.79-33.12v27.62c3.4.63,6.11,3.68,6.11,7.36,0,4.12-3.37,7.47-7.5,7.47s-7.47-3.35-7.47-7.47c0-3.67,2.58-6.73,6.16-7.36v-27.62l-17.84,33.1c3.31,4.17,5.37,9.2,5.99,14.5l.92,8.07Z"/>
        <path class="cls-2" d="m41.73,78.71h-7.6v11.29h41.93v-11.29h-34.34Zm19.55,6.99h-12.31c-.73,0-1.32-.52-1.32-1.25s.59-1.25,1.32-1.25h12.31c.73,0,1.32.52,1.32,1.25,0,.73-.59,1.25-1.32,1.25Z"/>
      </g>
    </g>
  </g>
</svg>