<?xml version="1.0" encoding="UTF-8"?>
<svg id="Layer_2" data-name="Layer 2" xmlns="http://www.w3.org/2000/svg" viewBox="0 0 110.29 110.29">
  <defs>
    <style>
      .cls-1 {
        stroke-width: 0px;
      }
    </style>
  </defs>
  <g id="Layer_1-2" data-name="Layer 1">
    <g>
      <path class="cls-1" d="m55.14,110.29c-7.44,0-14.67-1.46-21.46-4.33-6.57-2.78-12.46-6.75-17.53-11.82-5.06-5.06-9.04-10.96-11.82-17.53-2.88-6.8-4.33-14.02-4.33-21.46s1.46-14.66,4.33-21.46c2.78-6.57,6.75-12.46,11.82-17.53,5.06-5.06,10.96-9.04,17.53-11.82C40.48,1.46,47.7,0,55.14,0s14.67,1.46,21.46,4.33c6.57,2.78,12.46,6.75,17.53,11.82,5.06,5.06,9.04,10.96,11.82,17.53,2.87,6.8,4.33,14.02,4.33,21.46s-1.46,14.67-4.33,21.46c-2.78,6.57-6.75,12.46-11.82,17.53-5.06,5.06-10.96,9.04-17.53,11.82-6.8,2.88-14.02,4.33-21.46,4.33Zm0-108.2C25.89,2.09,2.09,25.89,2.09,55.14s23.8,53.05,53.05,53.05,53.05-23.8,53.05-53.05c0-29.25-23.8-53.05-53.05-53.05Z"/>
      <g>
        <path class="cls-1" d="m50.31,55.33c0,2.66,2.17,4.83,4.83,4.83s4.83-2.17,4.83-4.83-2.17-4.83-4.83-4.83-4.83,2.17-4.83,4.83Z"/>
        <path class="cls-1" d="m42.92,76.02h24.44l.85-7.62c.62-5.45,2.68-10.62,6.05-14.93l-17.85-33.12v27.62c3.58.63,6.18,3.68,6.18,7.36,0,4.12-3.34,7.47-7.46,7.47s-7.52-3.35-7.52-7.47c0-3.67,2.53-6.73,6.11-7.36v-27.62l-17.77,33.1c3.31,4.17,5.41,9.2,6.02,14.5l.95,8.07Z"/>
        <path class="cls-1" d="m41.74,78.71h-7.55v11.29h42.11v-11.29h-34.56Zm19.55,6.99h-12.31c-.73,0-1.32-.52-1.32-1.25s.59-1.25,1.32-1.25h12.31c.73,0,1.32.52,1.32,1.25s-.59,1.25-1.32,1.25Z"/>
      </g>
    </g>
  </g>
</svg>