<?xml version="1.0" encoding="UTF-8"?>
<svg id="Layer_2" data-name="Layer 2" xmlns="http://www.w3.org/2000/svg" viewBox="0 0 615.43 615.43">
  <defs>
    <style>
      .cls-1 {
        stroke-width: 0px;
      }
    </style>
  </defs>
  <g id="Layer_1-2" data-name="Layer 1">
    <g>
      <path class="cls-1" d="m307.71,615.43c-41.54,0-81.84-8.14-119.78-24.19-36.64-15.5-69.55-37.68-97.81-65.94-28.26-28.26-50.44-61.16-65.94-97.81C8.14,389.55,0,349.25,0,307.72s8.14-81.83,24.19-119.78c15.5-36.65,37.68-69.55,65.94-97.81,28.26-28.26,61.17-50.45,97.81-65.94C225.88,8.14,266.18,0,307.71,0s81.84,8.14,119.78,24.18c36.64,15.5,69.55,37.68,97.8,65.94,28.26,28.26,50.45,61.16,65.95,97.81,16.04,37.94,24.18,78.24,24.18,119.78s-8.14,81.84-24.18,119.78c-15.5,36.64-37.69,69.55-65.95,97.81-28.26,28.26-61.16,50.44-97.8,65.94-37.94,16.05-78.24,24.19-119.78,24.19Zm0-603.76C144.47,11.67,11.67,144.48,11.67,307.72s132.81,296.05,296.05,296.05,296.05-132.8,296.05-296.05c0-163.24-132.8-296.04-296.05-296.04Z"/>
      <g>
        <path class="cls-1" d="m280.75,308.74c0,14.86,12.09,26.96,26.96,26.96s26.96-12.09,26.96-26.96-12.09-26.96-26.96-26.96-26.96,12.09-26.96,26.96Z"/>
        <path class="cls-1" d="m239.5,424.21h136.4l4.77-42.52c3.44-30.4,14.98-59.26,33.74-83.32l-99.63-184.83v154.14c20,3.49,34.49,20.56,34.49,41.05,0,23-18.64,41.71-41.64,41.71s-41.95-18.71-41.95-41.71c0-20.48,14.1-37.55,34.1-41.05V113.55l-99.18,184.7c18.49,23.24,30.16,51.33,33.59,80.93l5.31,45.03Z"/>
        <path class="cls-1" d="m232.93,439.21h-42.15v63h235v-63h-192.85Zm109.12,39h-68.67c-4.07,0-7.38-2.92-7.38-7s3.3-7,7.38-7h68.67c4.07,0,7.38,2.93,7.38,7s-3.3,7-7.38,7Z"/>
      </g>
    </g>
  </g>
</svg>